<?xml version="1.0" standalone="no"?>
<!DOCTYPE svg PUBLIC "-//W3C//DTD SVG 20010904//EN"
 "http://www.w3.org/TR/2001/REC-SVG-20010904/DTD/svg10.dtd">
<svg version="1.0" xmlns="http://www.w3.org/2000/svg"
 width="389.000000pt" height="145.000000pt" viewBox="0 0 389.000000 145.000000"
 preserveAspectRatio="xMidYMid meet">

<g transform="translate(0.000000,145.000000) scale(0.100000,-0.100000)"
fill="#000000" stroke="none">
<path d="M90 710 l0 -640 1845 0 1845 0 0 640 0 640 -1845 0 -1845 0 0 -640z
m3650 0 l0 -600 -1805 0 -1805 0 0 600 0 600 1805 0 1805 0 0 -600z"/>
<path d="M220 710 l0 -520 1100 0 1100 0 0 520 0 520 -1100 0 -1100 0 0 -520z
m495 140 c12 -12 25 -32 28 -46 3 -20 0 -24 -19 -24 -14 0 -24 6 -24 14 0 41
-105 62 -142 29 -41 -37 -14 -72 75 -98 80 -23 117 -56 117 -104 0 -90 -140
-130 -219 -62 -17 14 -33 38 -37 54 -5 23 -3 27 15 27 14 0 25 -9 31 -24 12
-32 39 -46 89 -46 40 0 81 26 81 50 0 20 -40 49 -88 64 -111 32 -146 74 -118
140 27 65 153 81 211 26z m196 -94 c4 -108 7 -128 25 -153 16 -21 31 -29 61
-31 79 -6 102 42 103 211 0 90 1 97 20 97 19 0 20 -7 20 -122 0 -136 -11 -174
-62 -211 -34 -25 -101 -27 -144 -4 -49 25 -64 76 -64 217 0 111 1 120 19 120
17 0 19 -10 22 -124z m469 24 c36 -55 68 -100 71 -100 3 0 36 45 73 100 47 71
72 100 86 100 19 0 20 -7 20 -175 l0 -175 -25 0 -24 0 -3 127 -3 127 -54 -83
c-39 -58 -59 -81 -72 -79 -10 2 -43 41 -73 88 l-56 85 0 -132 0 -133 -25 0
-25 0 0 175 c0 175 0 175 23 175 17 0 37 -23 87 -100z m495 0 c36 -56 69 -99
74 -96 4 3 36 48 71 101 42 64 69 95 81 95 18 0 19 -11 19 -175 0 -168 -1
-175 -20 -175 -19 0 -20 7 -20 132 l0 132 -57 -84 c-32 -47 -66 -86 -75 -88
-12 -2 -34 23 -75 84 l-58 87 -3 -131 c-2 -124 -4 -132 -22 -132 -19 0 -20 8
-20 175 0 169 1 175 20 175 15 0 38 -28 85 -100z"/>
<path d="M2630 715 l0 -175 125 0 125 0 0 40 0 39 -72 3 c-70 3 -73 4 -73 28
0 24 3 25 63 28 l62 3 0 39 0 40 -66 0 c-62 0 -65 1 -62 23 3 20 9 22 71 25
l67 3 0 39 0 40 -120 0 -120 0 0 -175z"/>
<path d="M2931 868 c7 -13 29 -49 51 -80 21 -31 38 -62 38 -68 0 -7 -25 -50
-55 -96 l-55 -84 59 0 59 0 32 52 32 52 32 -52 31 -52 58 0 c44 0 56 3 51 13
-4 6 -30 47 -57 90 l-49 77 51 78 c28 43 51 81 51 85 0 4 -24 7 -53 7 -52 0
-53 0 -83 -50 l-31 -51 -33 51 c-32 50 -32 50 -86 50 -54 0 -54 0 -43 -22z"/>
<path d="M3300 846 l0 -45 53 -3 52 -3 3 -127 3 -128 49 0 50 0 0 130 0 130
50 0 50 0 0 45 0 45 -155 0 -155 0 0 -44z"/>
</g>
</svg>
